<mxfile host="app.diagrams.net" modified="2023-01-16T13:13:07.177Z" agent="5.0 (Windows NT 10.0; Win64; x64) AppleWebKit/537.36 (KHTML, like Gecko) Chrome/109.0.0.0 Safari/537.36" etag="FHmDcK8j1VEBxUqPCIoD" version="20.8.5" type="github">
  <diagram name="Page-1" id="13e1069c-82ec-6db2-03f1-153e76fe0fe0">
    <mxGraphModel dx="1434" dy="764" grid="1" gridSize="10" guides="1" tooltips="1" connect="1" arrows="1" fold="1" page="1" pageScale="1" pageWidth="1100" pageHeight="850" background="none" math="0" shadow="0">
      <root>
        <mxCell id="0" />
        <mxCell id="1" parent="0" />
        <mxCell id="7baba1c4bc27f4b0-2" value="시스템" style="shape=umlLifeline;perimeter=lifelinePerimeter;whiteSpace=wrap;html=1;container=1;collapsible=0;recursiveResize=0;outlineConnect=0;rounded=1;shadow=0;comic=0;labelBackgroundColor=none;strokeWidth=1;fontFamily=Verdana;fontSize=12;align=center;" parent="1" vertex="1">
          <mxGeometry x="380" y="109" width="100" height="640" as="geometry" />
        </mxCell>
        <mxCell id="d7kwrDIypniRsh-_axAG-21" value="9. 장소 정보 제공" style="html=1;verticalAlign=bottom;endArrow=block;labelBackgroundColor=none;fontFamily=Verdana;fontSize=12;edgeStyle=elbowEdgeStyle;elbow=vertical;align=left;dashed=1;fontStyle=1" edge="1" parent="7baba1c4bc27f4b0-2">
          <mxGeometry x="-0.2646" relative="1" as="geometry">
            <mxPoint x="50.5" y="360" as="sourcePoint" />
            <mxPoint x="-250" y="360" as="targetPoint" />
            <mxPoint as="offset" />
          </mxGeometry>
        </mxCell>
        <mxCell id="7baba1c4bc27f4b0-3" value="DB" style="shape=umlLifeline;perimeter=lifelinePerimeter;whiteSpace=wrap;html=1;container=1;collapsible=0;recursiveResize=0;outlineConnect=0;rounded=1;shadow=0;comic=0;labelBackgroundColor=none;strokeWidth=1;fontFamily=Verdana;fontSize=12;align=center;" parent="1" vertex="1">
          <mxGeometry x="710" y="109" width="100" height="640" as="geometry" />
        </mxCell>
        <mxCell id="d7kwrDIypniRsh-_axAG-23" value="11. 대상 장소 조회 및 저장 / 리뷰 작성 기능 제공" style="html=1;verticalAlign=bottom;endArrow=block;labelBackgroundColor=none;fontFamily=Verdana;fontSize=12;elbow=vertical;align=left;fontStyle=1;edgeStyle=orthogonalEdgeStyle;curved=1;" edge="1" parent="7baba1c4bc27f4b0-3" target="7baba1c4bc27f4b0-2">
          <mxGeometry x="-1" relative="1" as="geometry">
            <mxPoint x="-280" y="440" as="sourcePoint" />
            <mxPoint x="-69" y="510" as="targetPoint" />
            <mxPoint as="offset" />
            <Array as="points">
              <mxPoint x="-220" y="440" />
              <mxPoint x="-220" y="490" />
            </Array>
          </mxGeometry>
        </mxCell>
        <mxCell id="d7kwrDIypniRsh-_axAG-24" value="12. 장소 저장 / 리뷰 저장" style="html=1;verticalAlign=bottom;endArrow=block;labelBackgroundColor=none;fontFamily=Verdana;fontSize=12;edgeStyle=elbowEdgeStyle;elbow=vertical;align=left;exitX=0.5;exitY=0.193;exitDx=0;exitDy=0;exitPerimeter=0;fontStyle=1" edge="1" parent="7baba1c4bc27f4b0-3">
          <mxGeometry x="-1" relative="1" as="geometry">
            <mxPoint x="-280" y="540" as="sourcePoint" />
            <mxPoint x="49.5" y="540" as="targetPoint" />
            <mxPoint as="offset" />
          </mxGeometry>
        </mxCell>
        <mxCell id="7baba1c4bc27f4b0-4" value="KAKAO_API" style="shape=umlLifeline;perimeter=lifelinePerimeter;whiteSpace=wrap;html=1;container=1;collapsible=0;recursiveResize=0;outlineConnect=0;rounded=1;shadow=0;comic=0;labelBackgroundColor=none;strokeWidth=1;fontFamily=Verdana;fontSize=12;align=center;" parent="1" vertex="1">
          <mxGeometry x="895" y="109" width="100" height="640" as="geometry" />
        </mxCell>
        <mxCell id="d7kwrDIypniRsh-_axAG-19" value="8. 가져온 장소 정보 저장 (장소 ID 중복 체크)" style="html=1;verticalAlign=bottom;endArrow=block;labelBackgroundColor=none;fontFamily=Verdana;fontSize=12;edgeStyle=elbowEdgeStyle;elbow=vertical;align=left;exitX=0.5;exitY=0.193;exitDx=0;exitDy=0;exitPerimeter=0;fontStyle=1" edge="1" parent="7baba1c4bc27f4b0-4" target="7baba1c4bc27f4b0-3">
          <mxGeometry x="-1" relative="1" as="geometry">
            <mxPoint x="-465" y="340" as="sourcePoint" />
            <mxPoint x="49.5" y="340.05999999999995" as="targetPoint" />
            <mxPoint as="offset" />
          </mxGeometry>
        </mxCell>
        <mxCell id="7baba1c4bc27f4b0-8" value="유저" style="shape=umlLifeline;perimeter=lifelinePerimeter;whiteSpace=wrap;html=1;container=1;collapsible=0;recursiveResize=0;outlineConnect=0;rounded=1;shadow=0;comic=0;labelBackgroundColor=none;strokeWidth=1;fontFamily=Verdana;fontSize=12;align=center;" parent="1" vertex="1">
          <mxGeometry x="80" y="109" width="100" height="640" as="geometry" />
        </mxCell>
        <mxCell id="7baba1c4bc27f4b0-11" value="1. 우편 주소 변환 요청" style="html=1;verticalAlign=bottom;endArrow=block;labelBackgroundColor=none;fontFamily=Verdana;fontSize=12;edgeStyle=elbowEdgeStyle;elbow=vertical;align=left;fontStyle=1" parent="1" edge="1">
          <mxGeometry x="-1" relative="1" as="geometry">
            <mxPoint x="129.5" y="191" as="sourcePoint" />
            <mxPoint x="430" y="191" as="targetPoint" />
            <mxPoint as="offset" />
          </mxGeometry>
        </mxCell>
        <mxCell id="d7kwrDIypniRsh-_axAG-8" value="2. 우편 주소 변환 요청" style="html=1;verticalAlign=bottom;endArrow=block;labelBackgroundColor=none;fontFamily=Verdana;fontSize=12;edgeStyle=elbowEdgeStyle;elbow=vertical;align=left;exitX=0.5;exitY=0.193;exitDx=0;exitDy=0;exitPerimeter=0;fontStyle=1" edge="1" parent="1">
          <mxGeometry x="-1" relative="1" as="geometry">
            <mxPoint x="430" y="214.51999999999998" as="sourcePoint" />
            <mxPoint x="944.5" y="215" as="targetPoint" />
            <mxPoint as="offset" />
          </mxGeometry>
        </mxCell>
        <mxCell id="d7kwrDIypniRsh-_axAG-12" value="3. 변환된 우편 주소 전달" style="html=1;verticalAlign=bottom;endArrow=block;labelBackgroundColor=none;fontFamily=Verdana;fontSize=12;edgeStyle=elbowEdgeStyle;elbow=vertical;align=left;dashed=1;fontStyle=1" edge="1" parent="1" source="7baba1c4bc27f4b0-4">
          <mxGeometry x="-0.451" relative="1" as="geometry">
            <mxPoint x="940" y="263" as="sourcePoint" />
            <mxPoint x="430" y="263" as="targetPoint" />
            <mxPoint as="offset" />
          </mxGeometry>
        </mxCell>
        <mxCell id="d7kwrDIypniRsh-_axAG-13" value="4. 변환된 우편 주소 전달" style="html=1;verticalAlign=bottom;endArrow=block;labelBackgroundColor=none;fontFamily=Verdana;fontSize=12;edgeStyle=elbowEdgeStyle;elbow=vertical;align=left;dashed=1;fontStyle=1" edge="1" parent="1" target="7baba1c4bc27f4b0-8">
          <mxGeometry x="-0.0682" relative="1" as="geometry">
            <mxPoint x="430" y="289" as="sourcePoint" />
            <mxPoint x="-80" y="289" as="targetPoint" />
            <mxPoint as="offset" />
          </mxGeometry>
        </mxCell>
        <mxCell id="d7kwrDIypniRsh-_axAG-14" value="5. 우편 주소 + 카테고리로 장소 검색" style="html=1;verticalAlign=bottom;endArrow=block;labelBackgroundColor=none;fontFamily=Verdana;fontSize=12;elbow=vertical;align=left;fontStyle=1;edgeStyle=elbowEdgeStyle;" edge="1" parent="1" source="7baba1c4bc27f4b0-8" target="7baba1c4bc27f4b0-2">
          <mxGeometry x="-1" relative="1" as="geometry">
            <mxPoint x="172" y="339" as="sourcePoint" />
            <mxPoint x="390" y="339" as="targetPoint" />
            <mxPoint as="offset" />
            <Array as="points">
              <mxPoint x="340" y="339" />
            </Array>
          </mxGeometry>
        </mxCell>
        <mxCell id="d7kwrDIypniRsh-_axAG-16" value="6. 주소 정보 -&amp;gt; 위도, 경도 변환 -&amp;gt; 위도, 경도 + 카테고리로 장소 정보 호출" style="html=1;verticalAlign=bottom;endArrow=block;labelBackgroundColor=none;fontFamily=Verdana;fontSize=12;edgeStyle=elbowEdgeStyle;elbow=vertical;align=left;exitX=0.5;exitY=0.193;exitDx=0;exitDy=0;exitPerimeter=0;fontStyle=1" edge="1" parent="1">
          <mxGeometry x="-1" relative="1" as="geometry">
            <mxPoint x="430" y="359.00000000000006" as="sourcePoint" />
            <mxPoint x="944.5" y="359.06" as="targetPoint" />
            <mxPoint as="offset" />
          </mxGeometry>
        </mxCell>
        <mxCell id="d7kwrDIypniRsh-_axAG-17" value="7. 장소 정보 전달" style="html=1;verticalAlign=bottom;endArrow=block;labelBackgroundColor=none;fontFamily=Verdana;fontSize=12;edgeStyle=elbowEdgeStyle;elbow=vertical;align=left;dashed=1;fontStyle=1" edge="1" parent="1">
          <mxGeometry x="-0.5938" relative="1" as="geometry">
            <mxPoint x="944.5" y="409" as="sourcePoint" />
            <mxPoint x="430" y="409" as="targetPoint" />
            <mxPoint as="offset" />
          </mxGeometry>
        </mxCell>
        <mxCell id="d7kwrDIypniRsh-_axAG-22" value="10. 확인 중인 장소 저장 / 리뷰 작성 기능 호출" style="html=1;verticalAlign=bottom;endArrow=block;labelBackgroundColor=none;fontFamily=Verdana;fontSize=12;elbow=vertical;align=left;fontStyle=1;edgeStyle=elbowEdgeStyle;" edge="1" parent="1">
          <mxGeometry x="-1" relative="1" as="geometry">
            <mxPoint x="130" y="539" as="sourcePoint" />
            <mxPoint x="430" y="539" as="targetPoint" />
            <mxPoint as="offset" />
            <Array as="points">
              <mxPoint x="340.5" y="539" />
            </Array>
          </mxGeometry>
        </mxCell>
        <mxCell id="d7kwrDIypniRsh-_axAG-28" value="유저" style="rounded=1;whiteSpace=wrap;html=1;fontSize=12;" vertex="1" parent="1">
          <mxGeometry x="80" y="749" width="100" height="40" as="geometry" />
        </mxCell>
        <mxCell id="d7kwrDIypniRsh-_axAG-29" value="시스템" style="rounded=1;whiteSpace=wrap;html=1;fontSize=12;" vertex="1" parent="1">
          <mxGeometry x="380" y="749" width="100" height="40" as="geometry" />
        </mxCell>
        <mxCell id="d7kwrDIypniRsh-_axAG-30" value="DB" style="rounded=1;whiteSpace=wrap;html=1;fontSize=12;" vertex="1" parent="1">
          <mxGeometry x="710" y="749" width="100" height="40" as="geometry" />
        </mxCell>
        <mxCell id="d7kwrDIypniRsh-_axAG-31" value="KAKAO_API" style="rounded=1;whiteSpace=wrap;html=1;fontSize=12;" vertex="1" parent="1">
          <mxGeometry x="895" y="749" width="100" height="40" as="geometry" />
        </mxCell>
        <mxCell id="d7kwrDIypniRsh-_axAG-32" value="&lt;b&gt;주소 정보가 유효할 때&lt;/b&gt;" style="shape=umlFrame;whiteSpace=wrap;html=1;fontSize=12;width=140;height=30;fillColor=#f8cecc;strokeColor=#b85450;" vertex="1" parent="1">
          <mxGeometry x="110" y="239" width="860" height="450" as="geometry" />
        </mxCell>
        <mxCell id="d7kwrDIypniRsh-_axAG-33" value="&lt;b&gt;&lt;font style=&quot;font-size: 25px;&quot;&gt;주소 기반 장소 추천 / 검색 기능&lt;/font&gt;&lt;/b&gt;" style="text;html=1;strokeColor=none;fillColor=none;align=center;verticalAlign=middle;whiteSpace=wrap;rounded=0;fontSize=12;" vertex="1" parent="1">
          <mxGeometry x="365" y="40" width="370" height="30" as="geometry" />
        </mxCell>
      </root>
    </mxGraphModel>
  </diagram>
</mxfile>
